<svg width="21" height="21" viewBox="0 0 21 21" fill="none" xmlns="http://www.w3.org/2000/svg">
<path d="M13.6829 6.36905L12.6399 3.15881C11.9663 1.08587 9.03367 1.08586 8.36012 3.15881L7.31705 6.36905C7.21665 6.67807 6.92868 6.88729 6.60376 6.88729H3.22832C1.0487 6.88729 0.14244 9.67642 1.9058 10.9576L4.63659 12.9416C4.89946 13.1326 5.00945 13.4711 4.90905 13.7801L3.86598 16.9904C3.19244 19.0633 5.56501 20.7871 7.32837 19.506L10.0592 17.5219C10.322 17.3309 10.678 17.3309 10.9408 17.5219L13.6716 19.5059C15.435 20.7871 17.8076 19.0633 17.134 16.9904L16.091 13.7801C15.9905 13.4711 16.1005 13.1326 16.3634 12.9416L19.0942 10.9576C20.8576 9.67642 19.9513 6.88729 17.7717 6.88729H14.3962C14.0713 6.88729 13.7834 6.67807 13.6829 6.36905Z" fill="#FC0B7B" stroke="#FC0B7B" stroke-width="2"/>
</svg>
