<svg width="147" height="45" viewBox="0 0 147 45" fill="none" xmlns="http://www.w3.org/2000/svg">
<defs>
<linearGradient id="paint0_linear_9_6" x1="18.576" y1="14.6" x2="18.576" y2="37.448" gradientUnits="userSpaceOnUse">
<stop stop-color="#EC2FCE"/>
<stop offset="0.359375" stop-color="#6006BA"/>
</linearGradient>
<linearGradient id="paint1_linear_9_6" x1="18.576" y1="14.6" x2="18.576" y2="37.448" gradientUnits="userSpaceOnUse">
<stop stop-color="#EC2FCE"/>
<stop offset="0.520833" stop-color="#6006BA"/>
<stop offset="0.911458" stop-color="#1E1E1E"/>
</linearGradient>
<linearGradient id="paint2_linear_9_6" x1="41.5" y1="6" x2="41.5" y2="45" gradientUnits="userSpaceOnUse">
<stop stop-color="#EC2FCE"/>
<stop offset="0.6875" stop-color="#6006BA"/>
</linearGradient>
<linearGradient id="paint3_linear_9_6" x1="41.184" y1="19.368" x2="41.184" y2="37" gradientUnits="userSpaceOnUse">
<stop stop-color="#EC2FCE"/>
<stop offset="0.520833" stop-color="#6006BA"/>
<stop offset="0.911458" stop-color="#1E1E1E"/>
</linearGradient>
<linearGradient id="paint4_linear_9_6" x1="56.5" y1="6" x2="56.5" y2="45" gradientUnits="userSpaceOnUse">
<stop stop-color="#EC2FCE"/>
<stop offset="1" stop-color="#6006BA"/>
</linearGradient>
<linearGradient id="paint5_linear_9_6" x1="55.992" y1="11.272" x2="55.992" y2="37" gradientUnits="userSpaceOnUse">
<stop stop-color="#EC2FCE"/>
<stop offset="0.520833" stop-color="#6006BA"/>
<stop offset="0.911458" stop-color="#1E1E1E"/>
</linearGradient>
<linearGradient id="paint6_linear_9_6" x1="77" y1="6" x2="77" y2="45" gradientUnits="userSpaceOnUse">
<stop stop-color="#EC2FCE"/>
<stop offset="1" stop-color="#6006BA"/>
</linearGradient>
<linearGradient id="paint7_linear_9_6" x1="76.752" y1="19.368" x2="76.752" y2="37" gradientUnits="userSpaceOnUse">
<stop stop-color="#EC2FCE"/>
<stop offset="0.520833" stop-color="#6006BA"/>
<stop offset="0.911458" stop-color="#1E1E1E"/>
</linearGradient>
<linearGradient id="paint8_linear_9_6" x1="102.5" y1="6" x2="102.5" y2="45" gradientUnits="userSpaceOnUse">
<stop stop-color="#EC2FCE"/>
<stop offset="1" stop-color="#6006BA"/>
</linearGradient>
<linearGradient id="paint9_linear_9_6" x1="102.272" y1="19.368" x2="102.272" y2="37.288" gradientUnits="userSpaceOnUse">
<stop stop-color="#EC2FCE"/>
<stop offset="0.520833" stop-color="#6006BA"/>
<stop offset="0.911458" stop-color="#1E1E1E"/>
</linearGradient>
<linearGradient id="paint10_linear_9_6" x1="120.5" y1="6" x2="120.5" y2="45" gradientUnits="userSpaceOnUse">
<stop stop-color="#EC2FCE"/>
<stop offset="1" stop-color="#6006BA"/>
</linearGradient>
<linearGradient id="paint11_linear_9_6" x1="120.728" y1="19.368" x2="120.728" y2="37.288" gradientUnits="userSpaceOnUse">
<stop stop-color="#EC2FCE"/>
<stop offset="0.520833" stop-color="#6006BA"/>
<stop offset="0.911458" stop-color="#1E1E1E"/>
</linearGradient>
<linearGradient id="paint12_linear_9_6" x1="136.5" y1="6" x2="136.5" y2="45" gradientUnits="userSpaceOnUse">
<stop stop-color="#EC2FCE"/>
<stop offset="1" stop-color="#6006BA"/>
</linearGradient>
<linearGradient id="paint13_linear_9_6" x1="136.024" y1="15.784" x2="136.024" y2="37.288" gradientUnits="userSpaceOnUse">
<stop stop-color="#EC2FCE"/>
<stop offset="0.520833" stop-color="#6006BA"/>
<stop offset="0.911458" stop-color="#1E1E1E"/>
</linearGradient>
</defs>
<path d="M18.576 37.448C15.2693 37.448 12.688 36.5413 10.832 34.728C8.976 32.9147 8.048 30.344 8.048 27.016V14.6H14.384V26.824C14.384 28.744 14.7573 30.12 15.504 30.952C16.272 31.784 17.3173 32.2 18.64 32.2C19.9627 32.2 20.9973 31.784 21.744 30.952C22.4907 30.12 22.864 28.744 22.864 26.824V14.6H29.104V27.016C29.104 30.344 28.176 32.9147 26.32 34.728C24.464 36.5413 21.8827 37.448 18.576 37.448Z" fill="url(#paint0_linear_9_6)"/>
<path d="M18.576 37.448C15.2693 37.448 12.688 36.5413 10.832 34.728C8.976 32.9147 8.048 30.344 8.048 27.016V14.6H14.384V26.824C14.384 28.744 14.7573 30.12 15.504 30.952C16.272 31.784 17.3173 32.2 18.64 32.2C19.9627 32.2 20.9973 31.784 21.744 30.952C22.4907 30.12 22.864 28.744 22.864 26.824V14.6H29.104V27.016C29.104 30.344 28.176 32.9147 26.32 34.728C24.464 36.5413 21.8827 37.448 18.576 37.448Z" fill="url(#paint1_linear_9_6)"/>
<path d="M43.248 19.368C44.592 19.368 45.808 19.6453 46.896 20.2C47.984 20.7333 48.8373 21.5653 49.456 22.696C50.096 23.8267 50.416 25.288 50.416 27.08V37H44.336V28.072C44.336 26.8347 44.08 25.9387 43.568 25.384C43.0773 24.808 42.384 24.52 41.488 24.52C40.848 24.52 40.2613 24.6693 39.728 24.968C39.1947 25.2453 38.7787 25.6827 38.48 26.28C38.1813 26.8773 38.032 27.656 38.032 28.616V37H31.952V19.656H37.744V24.584L36.624 23.144C37.2853 21.8853 38.192 20.9467 39.344 20.328C40.496 19.688 41.7973 19.368 43.248 19.368Z" fill="url(#paint2_linear_9_6)"/>
<path d="M43.248 19.368C44.592 19.368 45.808 19.6453 46.896 20.2C47.984 20.7333 48.8373 21.5653 49.456 22.696C50.096 23.8267 50.416 25.288 50.416 27.08V37H44.336V28.072C44.336 26.8347 44.08 25.9387 43.568 25.384C43.0773 24.808 42.384 24.52 41.488 24.52C40.848 24.52 40.2613 24.6693 39.728 24.968C39.1947 25.2453 38.7787 25.6827 38.48 26.28C38.1813 26.8773 38.032 27.656 38.032 28.616V37H31.952V19.656H37.744V24.584L36.624 23.144C37.2853 21.8853 38.192 20.9467 39.344 20.328C40.496 19.688 41.7973 19.368 43.248 19.368Z" fill="url(#paint3_linear_9_6)"/>
<path d="M52.952 37V19.656H59.032V37H52.952ZM55.992 17.736C54.8827 17.736 53.9867 17.4267 53.304 16.808C52.6213 16.1893 52.28 15.4213 52.28 14.504C52.28 13.5867 52.6213 12.8187 53.304 12.2C53.9867 11.5813 54.8827 11.272 55.992 11.272C57.1013 11.272 57.9973 11.5707 58.68 12.168C59.3627 12.744 59.704 13.4907 59.704 14.408C59.704 15.368 59.3627 16.168 58.68 16.808C58.0187 17.4267 57.1227 17.736 55.992 17.736Z" fill="url(#paint4_linear_9_6)"/>
<path d="M52.952 37V19.656H59.032V37H52.952ZM55.992 17.736C54.8827 17.736 53.9867 17.4267 53.304 16.808C52.6213 16.1893 52.28 15.4213 52.28 14.504C52.28 13.5867 52.6213 12.8187 53.304 12.2C53.9867 11.5813 54.8827 11.272 55.992 11.272C57.1013 11.272 57.9973 11.5707 58.68 12.168C59.3627 12.744 59.704 13.4907 59.704 14.408C59.704 15.368 59.3627 16.168 58.68 16.808C58.0187 17.4267 57.1227 17.736 55.992 17.736Z" fill="url(#paint5_linear_9_6)"/>
<path d="M84.544 19.368C85.888 19.368 87.0827 19.6453 88.128 20.2C89.1947 20.7333 90.0267 21.5653 90.624 22.696C91.2427 23.8267 91.552 25.288 91.552 27.08V37H85.472V28.072C85.472 26.8347 85.2373 25.9387 84.768 25.384C84.2987 24.808 83.6587 24.52 82.848 24.52C82.272 24.52 81.7493 24.6587 81.28 24.936C80.8107 25.2133 80.448 25.64 80.192 26.216C79.936 26.7707 79.808 27.496 79.808 28.392V37H73.728V28.072C73.728 26.8347 73.4933 25.9387 73.024 25.384C72.576 24.808 71.936 24.52 71.104 24.52C70.5067 24.52 69.9733 24.6587 69.504 24.936C69.056 25.2133 68.6933 25.64 68.416 26.216C68.16 26.7707 68.032 27.496 68.032 28.392V37H61.952V19.656H67.744V24.488L66.592 23.112C67.232 21.8747 68.1067 20.9467 69.216 20.328C70.3253 19.688 71.5627 19.368 72.928 19.368C74.4853 19.368 75.8507 19.7733 77.024 20.584C78.2187 21.3733 79.0187 22.6107 79.424 24.296L77.44 23.88C78.0587 22.472 78.9867 21.3733 80.224 20.584C81.4827 19.7733 82.9227 19.368 84.544 19.368Z" fill="url(#paint6_linear_9_6)"/>
<path d="M84.544 19.368C85.888 19.368 87.0827 19.6453 88.128 20.2C89.1947 20.7333 90.0267 21.5653 90.624 22.696C91.2427 23.8267 91.552 25.288 91.552 27.08V37H85.472V28.072C85.472 26.8347 85.2373 25.9387 84.768 25.384C84.2987 24.808 83.6587 24.52 82.848 24.52C82.272 24.52 81.7493 24.6587 81.28 24.936C80.8107 25.2133 80.448 25.64 80.192 26.216C79.936 26.7707 79.808 27.496 79.808 28.392V37H73.728V28.072C73.728 26.8347 73.4933 25.9387 73.024 25.384C72.576 24.808 71.936 24.52 71.104 24.52C70.5067 24.52 69.9733 24.6587 69.504 24.936C69.056 25.2133 68.6933 25.64 68.416 26.216C68.16 26.7707 68.032 27.496 68.032 28.392V37H61.952V19.656H67.744V24.488L66.592 23.112C67.232 21.8747 68.1067 20.9467 69.216 20.328C70.3253 19.688 71.5627 19.368 72.928 19.368C74.4853 19.368 75.8507 19.7733 77.024 20.584C78.2187 21.3733 79.0187 22.6107 79.424 24.296L77.44 23.88C78.0587 22.472 78.9867 21.3733 80.224 20.584C81.4827 19.7733 82.9227 19.368 84.544 19.368Z" fill="url(#paint7_linear_9_6)"/>
<path d="M103.04 37.288C100.992 37.288 99.2 36.904 97.664 36.136C96.1493 35.3467 94.9653 34.28 94.112 32.936C93.28 31.5707 92.864 30.024 92.864 28.296C92.864 26.568 93.2693 25.032 94.08 23.688C94.912 22.3227 96.0533 21.2667 97.504 20.52C98.9547 19.752 100.587 19.368 102.4 19.368C104.107 19.368 105.664 19.72 107.072 20.424C108.48 21.1067 109.6 22.12 110.432 23.464C111.264 24.808 111.68 26.44 111.68 28.36C111.68 28.5733 111.669 28.8187 111.648 29.096C111.627 29.3733 111.605 29.6293 111.584 29.864H97.856V26.664H108.352L106.048 27.56C106.069 26.7707 105.92 26.088 105.6 25.512C105.301 24.936 104.875 24.488 104.32 24.168C103.787 23.848 103.157 23.688 102.432 23.688C101.707 23.688 101.067 23.848 100.512 24.168C99.9787 24.488 99.5627 24.9467 99.264 25.544C98.9653 26.12 98.816 26.8027 98.816 27.592V28.52C98.816 29.3733 98.9867 30.1093 99.328 30.728C99.6907 31.3467 100.203 31.8267 100.864 32.168C101.525 32.488 102.315 32.648 103.232 32.648C104.085 32.648 104.811 32.5307 105.408 32.296C106.027 32.04 106.635 31.656 107.232 31.144L110.432 34.472C109.6 35.3893 108.576 36.0933 107.36 36.584C106.144 37.0533 104.704 37.288 103.04 37.288Z" fill="url(#paint8_linear_9_6)"/>
<path d="M103.04 37.288C100.992 37.288 99.2 36.904 97.664 36.136C96.1493 35.3467 94.9653 34.28 94.112 32.936C93.28 31.5707 92.864 30.024 92.864 28.296C92.864 26.568 93.2693 25.032 94.08 23.688C94.912 22.3227 96.0533 21.2667 97.504 20.52C98.9547 19.752 100.587 19.368 102.4 19.368C104.107 19.368 105.664 19.72 107.072 20.424C108.48 21.1067 109.6 22.12 110.432 23.464C111.264 24.808 111.68 26.44 111.68 28.36C111.68 28.5733 111.669 28.8187 111.648 29.096C111.627 29.3733 111.605 29.6293 111.584 29.864H97.856V26.664H108.352L106.048 27.56C106.069 26.7707 105.92 26.088 105.6 25.512C105.301 24.936 104.875 24.488 104.32 24.168C103.787 23.848 103.157 23.688 102.432 23.688C101.707 23.688 101.067 23.848 100.512 24.168C99.9787 24.488 99.5627 24.9467 99.264 25.544C98.9653 26.12 98.816 26.8027 98.816 27.592V28.52C98.816 29.3733 98.9867 30.1093 99.328 30.728C99.6907 31.3467 100.203 31.8267 100.864 32.168C101.525 32.488 102.315 32.648 103.232 32.648C104.085 32.648 104.811 32.5307 105.408 32.296C106.027 32.04 106.635 31.656 107.232 31.144L110.432 34.472C109.6 35.3893 108.576 36.0933 107.36 36.584C106.144 37.0533 104.704 37.288 103.04 37.288Z" fill="url(#paint9_linear_9_6)"/>
<path d="M119.96 37.288C122.008 37.288 123.8 36.904 125.336 36.136C126.851 35.3467 128.035 34.28 128.888 32.936C129.72 31.5707 130.136 30.024 130.136 28.296C130.136 26.568 129.731 25.032 128.92 23.688C128.088 22.3227 126.947 21.2667 125.496 20.52C124.045 19.752 122.413 19.368 120.6 19.368C118.893 19.368 117.336 19.72 115.928 20.424C114.52 21.1067 113.4 22.12 112.568 23.464C111.736 24.808 111.32 26.44 111.32 28.36C111.32 28.5733 111.331 28.8187 111.352 29.096C111.373 29.3733 111.395 29.6293 111.416 29.864H125.144V26.664H114.648L116.952 27.56C116.931 26.7707 117.08 26.088 117.4 25.512C117.699 24.936 118.125 24.488 118.68 24.168C119.213 23.848 119.843 23.688 120.568 23.688C121.293 23.688 121.933 23.848 122.488 24.168C123.021 24.488 123.437 24.9467 123.736 25.544C124.035 26.12 124.184 26.8027 124.184 27.592V28.52C124.184 29.3733 124.013 30.1093 123.672 30.728C123.309 31.3467 122.797 31.8267 122.136 32.168C121.475 32.488 120.685 32.648 119.768 32.648C118.915 32.648 118.189 32.5307 117.592 32.296C116.973 32.04 116.365 31.656 115.768 31.144L112.568 34.472C113.4 35.3893 114.424 36.0933 115.64 36.584C116.856 37.0533 118.296 37.288 119.96 37.288Z" fill="url(#paint10_linear_9_6)"/>
<path d="M119.96 37.288C122.008 37.288 123.8 36.904 125.336 36.136C126.851 35.3467 128.035 34.28 128.888 32.936C129.72 31.5707 130.136 30.024 130.136 28.296C130.136 26.568 129.731 25.032 128.92 23.688C128.088 22.3227 126.947 21.2667 125.496 20.52C124.045 19.752 122.413 19.368 120.6 19.368C118.893 19.368 117.336 19.72 115.928 20.424C114.52 21.1067 113.4 22.12 112.568 23.464C111.736 24.808 111.32 26.44 111.32 28.36C111.32 28.5733 111.331 28.8187 111.352 29.096C111.373 29.3733 111.395 29.6293 111.416 29.864H125.144V26.664H114.648L116.952 27.56C116.931 26.7707 117.08 26.088 117.4 25.512C117.699 24.936 118.125 24.488 118.68 24.168C119.213 23.848 119.843 23.688 120.568 23.688C121.293 23.688 121.933 23.848 122.488 24.168C123.021 24.488 123.437 24.9467 123.736 25.544C124.035 26.12 124.184 26.8027 124.184 27.592V28.52C124.184 29.3733 124.013 30.1093 123.672 30.728C123.309 31.3467 122.797 31.8267 122.136 32.168C121.475 32.488 120.685 32.648 119.768 32.648C118.915 32.648 118.189 32.5307 117.592 32.296C116.973 32.04 116.365 31.656 115.768 31.144L112.568 34.472C113.4 35.3893 114.424 36.0933 115.64 36.584C116.856 37.0533 118.296 37.288 119.96 37.288Z" fill="url(#paint11_linear_9_6)"/>
<path d="M138.696 37.288C136.477 37.288 134.749 36.744 133.512 35.656C132.275 34.5467 131.656 32.8827 131.656 30.664V15.784H137.736V30.6C137.736 31.2187 137.907 31.7093 138.248 32.072C138.589 32.4133 139.027 32.584 139.56 32.584C140.285 32.584 140.904 32.4027 141.416 32.04L142.92 36.296C142.408 36.6373 141.779 36.8827 141.032 37.032C140.285 37.2027 139.507 37.288 138.696 37.288ZM129.128 24.84V20.296H141.704V24.84H129.128Z" fill="url(#paint12_linear_9_6)"/>
<path d="M138.696 37.288C136.477 37.288 134.749 36.744 133.512 35.656C132.275 34.5467 131.656 32.8827 131.656 30.664V15.784H137.736V30.6C137.736 31.2187 137.907 31.7093 138.248 32.072C138.589 32.4133 139.027 32.584 139.56 32.584C140.285 32.584 140.904 32.4027 141.416 32.04L142.92 36.296C142.408 36.6373 141.779 36.8827 141.032 37.032C140.285 37.2027 139.507 37.288 138.696 37.288ZM129.128 24.84V20.296H141.704V24.84H129.128Z" fill="url(#paint13_linear_9_6)"/>

</svg>
