<svg width="367" height="419" viewBox="0 0 367 419" fill="none" xmlns="http://www.w3.org/2000/svg">
<defs>
<filter id="filter0_d_1_2" x="53.8553" y="177.855" width="199.289" height="199.289" filterUnits="userSpaceOnUse" color-interpolation-filters="sRGB">
<feFlood flood-opacity="0" result="BackgroundImageFix"/>
<feColorMatrix in="SourceAlpha" type="matrix" values="0 0 0 0 0 0 0 0 0 0 0 0 0 0 0 0 0 0 127 0" result="hardAlpha"/>
<feOffset dy="4"/>
<feGaussianBlur stdDeviation="6"/>
<feColorMatrix type="matrix" values="0 0 0 0 0 0 0 0 0 0 0 0 0 0 0 0 0 0 0.25 0"/>
<feBlend mode="normal" in2="BackgroundImageFix" result="effect1_dropShadow_1_2"/>
<feBlend mode="normal" in="SourceGraphic" in2="effect1_dropShadow_1_2" result="shape"/>
</filter>
<filter id="filter1_d_1_2" x="114.855" y="177.855" width="199.289" height="199.289" filterUnits="userSpaceOnUse" color-interpolation-filters="sRGB">
<feFlood flood-opacity="0" result="BackgroundImageFix"/>
<feColorMatrix in="SourceAlpha" type="matrix" values="0 0 0 0 0 0 0 0 0 0 0 0 0 0 0 0 0 0 127 0" result="hardAlpha"/>
<feOffset dy="4"/>
<feGaussianBlur stdDeviation="6"/>
<feColorMatrix type="matrix" values="0 0 0 0 0 0 0 0 0 0 0 0 0 0 0 0 0 0 0.25 0"/>
<feBlend mode="normal" in2="BackgroundImageFix" result="effect1_dropShadow_1_2"/>
<feBlend mode="normal" in="SourceGraphic" in2="effect1_dropShadow_1_2" result="shape"/>
</filter>
<linearGradient id="paint0_linear_1_2" x1="62.5" y1="53" x2="62.5" y2="141" gradientUnits="userSpaceOnUse">
<stop stop-color="#A974FF"/>
<stop offset="1"/>
</linearGradient>
<linearGradient id="paint1_linear_1_2" x1="110.5" y1="53" x2="110.5" y2="141" gradientUnits="userSpaceOnUse">
<stop stop-color="#A974FF"/>
<stop offset="1"/>
</linearGradient>
<linearGradient id="paint2_linear_1_2" x1="141.5" y1="53" x2="141.5" y2="141" gradientUnits="userSpaceOnUse">
<stop stop-color="#A974FF"/>
<stop offset="1"/>
</linearGradient>
<linearGradient id="paint3_linear_1_2" x1="185" y1="53" x2="185" y2="141" gradientUnits="userSpaceOnUse">
<stop stop-color="#A974FF"/>
<stop offset="1"/>
</linearGradient>
<linearGradient id="paint4_linear_1_2" x1="240.5" y1="53" x2="240.5" y2="141" gradientUnits="userSpaceOnUse">
<stop stop-color="#A974FF"/>
<stop offset="1"/>
</linearGradient>
<linearGradient id="paint5_linear_1_2" x1="281.5" y1="53" x2="281.5" y2="141" gradientUnits="userSpaceOnUse">
<stop stop-color="#A974FF"/>
<stop offset="1"/>
</linearGradient>
<linearGradient id="paint6_linear_1_2" x1="315.5" y1="53" x2="315.5" y2="141" gradientUnits="userSpaceOnUse">
<stop stop-color="#A974FF"/>
<stop offset="1"/>
</linearGradient>
<linearGradient id="paint7_linear_1_2" x1="125.497" y1="272.212" x2="125.497" y2="404.848" gradientUnits="userSpaceOnUse">
<stop stop-color="#25A0B0"/>
<stop offset="1" stop-color="white" stop-opacity="0"/>
</linearGradient>
<linearGradient id="paint8_linear_1_2" x1="186.497" y1="272.212" x2="186.497" y2="404.848" gradientUnits="userSpaceOnUse">
<stop stop-color="#A974FF"/>
<stop offset="1" stop-color="white" stop-opacity="0"/>
</linearGradient>
</defs>
<path d="M62.296 124.008C54.856 124.008 49.048 121.968 44.872 117.888C40.696 113.808 38.608 108.024 38.608 100.536V72.6H52.864V100.104C52.864 104.424 53.704 107.52 55.384 109.392C57.112 111.264 59.464 112.2 62.44 112.2C65.416 112.2 67.744 111.264 69.424 109.392C71.104 107.52 71.944 104.424 71.944 100.104V72.6H85.984V100.536C85.984 108.024 83.896 113.808 79.72 117.888C75.544 121.968 69.736 124.008 62.296 124.008Z" fill="url(#paint0_linear_1_2)"/>
<path d="M114.808 83.328C117.832 83.328 120.568 83.952 123.016 85.2C125.464 86.4 127.384 88.272 128.776 90.816C130.216 93.36 130.936 96.648 130.936 100.68V123H117.256V102.912C117.256 100.128 116.68 98.112 115.528 96.864C114.424 95.568 112.864 94.92 110.848 94.92C109.408 94.92 108.088 95.256 106.888 95.928C105.688 96.552 104.752 97.536 104.08 98.88C103.408 100.224 103.072 101.976 103.072 104.136V123H89.392V83.976H102.424V95.064L99.904 91.824C101.392 88.992 103.432 86.88 106.024 85.488C108.616 84.048 111.544 83.328 114.808 83.328Z" fill="url(#paint1_linear_1_2)"/>
<path d="M134.392 123V83.976H148.072V123H134.392ZM141.232 79.656C138.736 79.656 136.72 78.96 135.184 77.568C133.648 76.176 132.88 74.448 132.88 72.384C132.88 70.32 133.648 68.592 135.184 67.2C136.72 65.808 138.736 65.112 141.232 65.112C143.728 65.112 145.744 65.784 147.28 67.128C148.816 68.424 149.584 70.104 149.584 72.168C149.584 74.328 148.816 76.128 147.28 77.568C145.792 78.96 143.776 79.656 141.232 79.656Z" fill="url(#paint2_linear_1_2)"/>
<path d="M202.224 83.328C205.248 83.328 207.936 83.952 210.288 85.2C212.688 86.4 214.56 88.272 215.904 90.816C217.296 93.36 217.992 96.648 217.992 100.68V123H204.312V102.912C204.312 100.128 203.784 98.112 202.728 96.864C201.672 95.568 200.232 94.92 198.408 94.92C197.112 94.92 195.936 95.232 194.88 95.856C193.824 96.48 193.008 97.44 192.432 98.736C191.856 99.984 191.568 101.616 191.568 103.632V123H177.888V102.912C177.888 100.128 177.36 98.112 176.304 96.864C175.296 95.568 173.856 94.92 171.984 94.92C170.64 94.92 169.44 95.232 168.384 95.856C167.376 96.48 166.56 97.44 165.936 98.736C165.36 99.984 165.072 101.616 165.072 103.632V123H151.392V83.976H164.424V94.848L161.832 91.752C163.272 88.968 165.24 86.88 167.736 85.488C170.232 84.048 173.016 83.328 176.088 83.328C179.592 83.328 182.664 84.24 185.304 86.064C187.992 87.84 189.792 90.624 190.704 94.416L186.24 93.48C187.632 90.312 189.72 87.84 192.504 86.064C195.336 84.24 198.576 83.328 202.224 83.328Z" fill="url(#paint3_linear_1_2)"/>
<path d="M241.84 123.648C237.232 123.648 233.2 122.784 229.744 121.056C226.336 119.28 223.672 116.88 221.752 113.856C219.88 110.784 218.944 107.304 218.944 103.416C218.944 99.528 219.856 96.072 221.68 93.048C223.552 89.976 226.12 87.6 229.384 85.92C232.648 84.192 236.32 83.328 240.4 83.328C244.24 83.328 247.744 84.12 250.912 85.704C254.08 87.24 256.6 89.52 258.472 92.544C260.344 95.568 261.28 99.24 261.28 103.56C261.28 104.04 261.256 104.592 261.208 105.216C261.16 105.84 261.112 106.416 261.064 106.944H230.176V99.744H253.792L248.608 101.76C248.656 99.984 248.32 98.448 247.6 97.152C246.928 95.856 245.968 94.848 244.72 94.128C243.52 93.408 242.104 93.048 240.472 93.048C238.84 93.048 237.4 93.408 236.152 94.128C234.952 94.848 234.016 95.88 233.344 97.224C232.672 98.52 232.336 100.056 232.336 101.832V103.92C232.336 105.84 232.72 107.496 233.488 108.888C234.304 110.28 235.456 111.36 236.944 112.128C238.432 112.848 240.208 113.208 242.272 113.208C244.192 113.208 245.824 112.944 247.168 112.416C248.56 111.84 249.928 110.976 251.272 109.824L258.472 117.312C256.6 119.376 254.296 120.96 251.56 122.064C248.824 123.12 245.584 123.648 241.84 123.648Z" fill="url(#paint4_linear_1_2)"/>
<path d="M280.16 123.648C284.768 123.648 288.8 122.784 292.256 121.056C295.664 119.28 298.328 116.88 300.248 113.856C302.12 110.784 303.056 107.304 303.056 103.416C303.056 99.528 302.144 96.072 300.32 93.048C298.448 89.976 295.88 87.6 292.616 85.92C289.352 84.192 285.68 83.328 281.6 83.328C277.76 83.328 274.256 84.12 271.088 85.704C267.92 87.24 265.4 89.52 263.528 92.544C261.656 95.568 260.72 99.24 260.72 103.56C260.72 104.04 260.744 104.592 260.792 105.216C260.84 105.84 260.888 106.416 260.936 106.944H291.824V99.744H268.208L273.392 101.76C273.344 99.984 273.68 98.448 274.4 97.152C275.072 95.856 276.032 94.848 277.28 94.128C278.48 93.408 279.896 93.048 281.528 93.048C283.16 93.048 284.6 93.408 285.848 94.128C287.048 94.848 287.984 95.88 288.656 97.224C289.328 98.52 289.664 100.056 289.664 101.832V103.92C289.664 105.84 289.28 107.496 288.512 108.888C287.696 110.28 286.544 111.36 285.056 112.128C283.568 112.848 281.792 113.208 279.728 113.208C277.808 113.208 276.176 112.944 274.832 112.416C273.44 111.84 272.072 110.976 270.728 109.824L263.528 117.312C265.4 119.376 267.704 120.96 270.44 122.064C273.176 123.12 276.416 123.648 280.16 123.648Z" fill="url(#paint5_linear_1_2)"/>
<path d="M320.816 123.648C315.824 123.648 311.936 122.424 309.152 119.976C306.368 117.48 304.976 113.736 304.976 108.744V75.264H318.656V108.6C318.656 109.992 319.04 111.096 319.808 111.912C320.576 112.68 321.56 113.064 322.76 113.064C324.392 113.064 325.784 112.656 326.936 111.84L330.32 121.416C329.168 122.184 327.752 122.736 326.072 123.072C324.392 123.456 322.64 123.648 320.816 123.648ZM299.288 95.64V85.416H327.584V95.64H299.288Z" fill="url(#paint6_linear_1_2)"/>
<g filter="url(#filter0_d_1_2)">
<rect x="61" y="272.212" width="128.993" height="132.636" rx="25" transform="rotate(-45 61 272.212)" stroke="url(#paint7_linear_1_2)" stroke-width="11"/>
</g>
<g filter="url(#filter1_d_1_2)">
<rect x="122" y="272.212" width="128.993" height="132.636" rx="25" transform="rotate(-45 122 272.212)" stroke="url(#paint8_linear_1_2)" stroke-width="11"/>
</g>
</svg>
