<svg width="58" height="58" viewBox="0 0 58 58" fill="none"
 
xmlns="http://www.w3.org/2000/svg">
<defs>
<linearGradient id="paint0_linear_2_8" x1="29" y1="0" x2="29" y2="58" gradientUnits="userSpaceOnUse">
<stop stop-color="#D9D9D9"/>
<stop offset="0.0001" stop-color="#EC2FCE" stop-opacity="0.989583"/>
<stop offset="1" stop-color="#6C3498" stop-opacity="0"/>
</linearGradient>
<clipPath id="clip0_2_8">
<rect width="31" height="31" fill="white" transform="translate(14 14)"/>
</clipPath>
</defs>
<circle cx="29" cy="29" r="29" fill="url(#paint0_linear_2_8)"/>
<g clip-path="url(#clip0_2_8)">
<path d="M29.5 14C38.0603 14 45 20.9396 45 29.5C45 38.0603 38.0603 45 29.5 45C20.9396 45 14 38.0603 14 29.5C14 20.9396 20.9396 14 29.5 14ZM29.5 16.325C22.2236 16.325 16.325 22.2236 16.325 29.5C16.325 36.7763 22.2236 42.675 29.5 42.675C36.7763 42.675 42.675 36.7763 42.675 29.5C42.675 22.2236 36.7763 16.325 29.5 16.325ZM29.5 21.75C30.142 21.75 30.6625 22.2705 30.6625 22.9125V28.3375H36.0875C36.7295 28.3375 37.25 28.858 37.25 29.5C37.25 30.142 36.7295 30.6625 36.0875 30.6625H30.6625V36.0875C30.6625 36.7295 30.142 37.25 29.5 37.25C28.858 37.25 28.3375 36.7295 28.3375 36.0875V30.6625H22.9125C22.2705 30.6625 21.75 30.142 21.75 29.5C21.75 28.858 22.2705 28.3375 22.9125 28.3375H28.3375V22.9125C28.3375 22.2705 28.858 21.75 29.5 21.75Z" fill="white"/>
</g>

</svg>
