<svg width="31" height="31" viewBox="0 0 31 31" fill="none" xmlns="http://www.w3.org/2000/svg">
<path d="M15.33 0C23.7965 0 30.66 6.86347 30.66 15.33C30.66 23.7965 23.7965 30.66 15.33 30.66C6.86347 30.66 0 23.7965 0 15.33C0 6.86347 6.86347 0 15.33 0ZM15.33 2.2995C8.13345 2.2995 2.2995 8.13345 2.2995 15.33C2.2995 22.5265 8.13345 28.3605 15.33 28.3605C22.5265 28.3605 28.3605 22.5265 28.3605 15.33C28.3605 8.13345 22.5265 2.2995 15.33 2.2995ZM15.33 7.665C15.965 7.665 16.4797 8.17977 16.4797 8.81475V14.1802H21.8452C22.4802 14.1802 22.995 14.695 22.995 15.33C22.995 15.965 22.4802 16.4797 21.8452 16.4797H16.4797V21.8452C16.4797 22.4802 15.965 22.995 15.33 22.995C14.695 22.995 14.1802 22.4802 14.1802 21.8452V16.4797H8.81475C8.17977 16.4797 7.665 15.965 7.665 15.33C7.665 14.695 8.17977 14.1802 8.81475 14.1802H14.1802V8.81475C14.1802 8.17977 14.695 7.665 15.33 7.665Z" fill="#812E6E"/>
</svg>
